<svg width="41" height="41" xmlns="http://www.w3.org/2000/svg">

 <g>
  <title>background</title>
  <rect fill="none" id="canvas_background" height="43" width="43" y="-1" x="-1"/>
 </g>
 <g>
  <title>Layer 1</title>
  <path opacity="0.2" id="svg_4" fill="#231F20" d="m5.107926,39.384689c-4.400001,0 -6.200001,-3.118 -4,-6.928001l15.046,-26.060001c2.200001,-3.810999 5.799999,-3.810999 8,0l15.046001,26.060001c2.199997,3.811001 0.399998,6.928001 -4,6.928001l-30.092002,0z"/>
  <path id="svg_6" fill="#ff5656" d="m5.107926,37.384689c-4.400001,0 -6.200001,-3.118 -4,-6.928001l15.046,-26.06c2.200001,-3.811 5.799999,-3.811 8,0l15.046001,26.06c2.199997,3.811001 0.399998,6.928001 -4,6.928001l-30.092002,0z"/>
  <path id="svg_8" fill="#ffffff" d="m22.153927,21.384689c0,1.105 -0.895,2 -2,2l0,0c-1.105,0 -2,-0.895 -2,-2l0,-8.000002c0,-1.105 0.895,-2 2,-2l0,0c1.105,0 2,0.895 2,2l0,8.000002z"/>
  <path id="svg_10" fill="#ffffff" d="m22.153927,29.384689c0,1.105 -0.895,2 -2,2l0,0c-1.105,0 -2,-0.895 -2,-2l0,0c0,-1.105 0.895,-2 2,-2l0,0c1.105,0 2,0.895 2,2l0,0z"/>
 </g>
</svg>